<svg width="29" height="40" viewBox="0 0 29 40" fill="#00B2FF" xmlns="http://www.w3.org/2000/svg">
  <path d="M3.18833 13.6729L1.70191 12.0583C0.894381 11.1816 0.894381 9.75441 1.70191 8.8771C2.50945 8.00007 3.82351 8.00007 4.63104 8.8771L6.21806 10.6007C7.87358 9.34842 9.7608 8.48164 11.7381 8.06569V5.82889H10.3571C9.97576 5.82889 9.66667 5.49319 9.66667 5.07899V3.12926C9.66667 1.88871 10.5958 0.879578 11.7381 0.879578H17.2619C18.4042 0.879578 19.3333 1.88871 19.3333 3.12926V5.07899C19.3333 5.49319 19.0242 5.82889 18.6429 5.82889H17.2619V8.06569C19.2389 8.48135 21.1264 9.34842 22.7819 10.6007L24.369 8.8771C25.1762 8.00007 26.4903 8.00007 27.2981 8.8771C28.1056 9.75412 28.1056 11.1813 27.2981 12.0583L25.8117 13.6729C27.872 16.4601 29 19.9319 29 23.5264C29 32.2097 22.4952 39.2742 14.5 39.2742C6.50477 39.2742 -1.90735e-06 32.2097 -1.90735e-06 23.5264C-1.90735e-06 19.9319 1.12796 16.4601 3.18833 13.6729ZM3.65467 9.9375C3.38522 9.64515 2.94747 9.64545 2.67829 9.9375C2.40938 10.2298 2.40938 10.7056 2.67829 10.9979L4.10509 12.5472C4.4266 12.1886 4.76374 11.8468 5.11438 11.5231L3.65467 9.9375ZM17.9524 3.12926C17.9524 2.71565 17.6427 2.37937 17.2619 2.37937H11.7381C11.3573 2.37937 11.0476 2.71565 11.0476 3.12926V4.3291H17.9524V3.12926ZM13.119 5.82889V7.8495C14.0342 7.75635 14.9655 7.75635 15.881 7.8495V5.82889H13.119ZM26.3217 9.9375C26.0525 9.64545 25.6145 9.64515 25.3453 9.9375L23.8856 11.5231C24.2363 11.8468 24.5734 12.1886 24.8949 12.5472L26.3217 10.9979C26.5906 10.7056 26.5906 10.2298 26.3217 9.9375ZM14.5 37.7744C21.7338 37.7744 27.619 31.3827 27.619 23.5264C27.619 20.0608 26.4606 16.7217 24.3574 14.1237C23.778 13.4081 23.1315 12.7543 22.4359 12.1796C20.6927 10.7389 18.6294 9.79074 16.4689 9.43717C15.8224 9.33201 15.16 9.27841 14.5 9.27841C13.84 9.27841 13.1776 9.33201 12.5313 9.43717C10.3706 9.79074 8.30729 10.7389 6.56384 12.1796C5.86851 12.7543 5.22199 13.4081 4.64264 14.1237C2.53939 16.7217 1.38095 20.0608 1.38095 23.5264C1.38095 31.3827 7.26618 37.7744 14.5 37.7744Z" />
  <path d="M14.4999 25.7761C13.3576 25.7761 12.4284 24.767 12.4284 23.5264C12.4284 22.5489 13.0056 21.7153 13.8094 21.4056V16.0275C13.8094 15.6133 14.1185 15.2776 14.4999 15.2776C14.8812 15.2776 15.1903 15.6133 15.1903 16.0275V21.4056C15.9941 21.7153 16.5713 22.5489 16.5713 23.5264C16.5713 24.767 15.6421 25.7761 14.4999 25.7761ZM14.4999 22.7765C14.119 22.7765 13.8094 23.1128 13.8094 23.5264C13.8094 23.9401 14.119 24.2763 14.4999 24.2763C14.8807 24.2763 15.1903 23.9401 15.1903 23.5264C15.1903 23.1128 14.8807 22.7765 14.4999 22.7765Z" />
  <path d="M7.14433 15.615C7.15512 15.6012 7.16591 15.5875 7.17805 15.5746C7.19099 15.5602 7.20475 15.5474 7.2185 15.5345C8.43547 14.2268 9.93887 13.2593 11.5704 12.7361C11.9364 12.6189 12.3202 12.8457 12.4281 13.2429C12.536 13.6401 12.3272 14.0572 11.9615 14.1744C10.7526 14.5622 9.62492 15.2325 8.66365 16.1273L9.12945 16.6332C9.3989 16.9262 9.3989 17.401 9.12945 17.6939C8.99459 17.8404 8.81793 17.9136 8.64099 17.9136C8.46433 17.9136 8.28766 17.8404 8.15281 17.6939L7.68592 17.1869C6.43659 18.7646 5.6946 20.7067 5.55003 22.7765H6.21408C6.59546 22.7765 6.90455 23.1125 6.90455 23.5264C6.90455 23.9406 6.59546 24.2763 6.21408 24.2763H5.55003C5.6946 26.3464 6.43659 28.2882 7.68592 29.866L8.15281 29.3589C8.42252 29.0663 8.85973 29.0663 9.12945 29.3589C9.39917 29.6518 9.39917 30.1267 9.12945 30.4196L8.66257 30.9267C10.1153 32.2835 11.9035 33.0893 13.8093 33.2466V32.5252C13.8093 32.111 14.1184 31.7753 14.4998 31.7753C14.8812 31.7753 15.1903 32.111 15.1903 32.5252V33.2463C17.0961 33.0893 18.8843 32.2835 20.337 30.9267L19.8701 30.4196C19.6004 30.1267 19.6004 29.6518 19.8701 29.3589C20.1398 29.0663 20.5771 29.0663 20.8468 29.3589L21.3137 29.866C22.563 28.2882 23.305 26.3461 23.4495 24.2763H22.7855C22.4041 24.2763 22.095 23.9406 22.095 23.5264C22.095 23.1122 22.4041 22.7765 22.7855 22.7765H23.4495C23.305 20.7067 22.563 18.7646 21.3137 17.1869L20.8468 17.6939C20.7119 17.8404 20.5353 17.9136 20.3586 17.9136C20.1817 17.9136 20.005 17.8404 19.8701 17.6939C19.6007 17.401 19.6007 16.9262 19.8701 16.6332L20.3359 16.1273C19.3747 15.2322 18.247 14.5622 17.0381 14.1744C16.6724 14.0572 16.4636 13.6401 16.5715 13.2429C16.6794 12.8457 17.0629 12.6192 17.4292 12.7361C19.0604 13.259 20.5633 14.2262 21.78 15.5333C21.7943 15.5465 21.8083 15.5599 21.8215 15.5743C21.8334 15.5872 21.8439 15.6007 21.8547 15.6141C23.791 17.7367 24.8569 20.5441 24.8569 23.5264C24.8569 26.5084 23.791 29.3155 21.8553 31.4378C21.8445 31.4516 21.8337 31.4653 21.8215 31.4782C21.8097 31.4914 21.7973 31.5028 21.7849 31.5146C19.8305 33.6172 17.2458 34.7748 14.4998 34.7748C11.7541 34.7748 9.16937 33.6175 7.21527 31.5151C7.20259 31.5031 7.18991 31.4914 7.17805 31.4782C7.16618 31.4656 7.15566 31.4519 7.14487 31.4387C5.20857 29.3161 4.14265 26.5087 4.14265 23.5264C4.14265 20.5444 5.20857 17.7373 7.14433 15.615Z" />
  <path d="M14.5 13.7778C14.1188 13.7778 13.8095 13.4418 13.8095 13.0279C13.8095 12.614 14.1188 12.278 14.5 12.278C14.8811 12.278 15.1904 12.614 15.1904 13.0279C15.1904 13.4418 14.8811 13.7778 14.5 13.7778Z"/>
</svg>
